# xmcd
#
# Track frame offsets: 
#        150
#        16767
#        35084
#        51896
#        66173
#        83542
#        100661
#        116331
#        137908
#        156030
#        174403
#        192051
#        207247
#        223279
#
# Disc length: 3598 seconds
#
# Revision: 0
# Processed by: cddbd v1.5.2PL0 Copyright (c) Steve Scherf et al.
# Submitted via: ExactAudioCopyFreeDBPlugin 1.0
#
DISCID=ba0e0c0e
DTITLE=Carla Morrison - Déjenme Llorar
DYEAR=2013
DGENRE=Indie
TTITLE0=Apagué Mi Mente
TTITLE1=Me Encanta
TTITLE2=No Quise mirar
TTITLE3=Duele
TTITLE4=Maleza
TTITLE5=Eres Tú
TTITLE6=Tu Orgullo
TTITLE7=Olvide
TTITLE8=Hasta La Piel
TTITLE9=Disfruto
TTITLE10=Déjenme Llorar
TTITLE11=Sin Despedir
TTITLE12=Tu Manera de Querer
TTITLE13=Me Puede
EXTD=
EXTT0=
EXTT1=
EXTT2=
EXTT3=
EXTT4=
EXTT5=
EXTT6=
EXTT7=
EXTT8=
EXTT9=
EXTT10=
EXTT11=
EXTT12=
EXTT13=
PLAYORDER=
